Coordinates
version=1
nRows=19
nColumns=24
inDegrees=yes

Units are S.I. units (second, meters, Newtons, ...)
Angles are in degrees.

endheader
time	pelvis_tilt	pelvis_list	pelvis_rotation	pelvis_tx	pelvis_ty	pelvis_tz	hip_flexion_r	hip_adduction_r	hip_rotation_r	knee_angle_r	ankle_angle_r	subtalar_angle_r	mtp_angle_r	hip_flexion_l	hip_adduction_l	hip_rotation_l	knee_angle_l	ankle_angle_l	subtalar_angle_l	mtp_angle_l	lumbar_extension	lumbar_bending	lumbar_rotation
      2.55500000	      7.13002118	      0.95716332	     -0.49581838	     -0.06116869	      1.02644057	     -0.03859505	     18.04056578	     -4.31298047	     -1.58098441	    -33.80590150	      8.16067042	     -2.85934341	     16.24260030	    -13.05288897	      3.32011850	    -11.39353946	     -3.08249312	     11.66960557	     11.44664388	      1.46348917	    -19.20943668	      0.68546526	     -0.89381233
      2.56000000	      7.18159028	      1.04007483	     -0.46660458	     -0.05603779	      1.02574199	     -0.03829253	     17.95213541	     -4.38160545	     -1.66782584	    -32.32602640	      8.08475707	     -2.65659432	     16.24350748	    -13.38966644	      3.38390996	    -11.31100544	     -3.15915384	     11.99973423	     11.44898288	      1.47382905	    -19.25678518	      0.59872579	     -0.96396028
      2.56500000	      7.21425989	      1.13686495	     -0.44348165	     -0.05091574	      1.02497660	     -0.03799586	     17.87471154	     -4.46581907	     -1.74187471	    -30.83754765	      8.00161804	     -2.43457487	     16.23919056	    -13.70123337	      3.46366050	    -11.21342387	     -3.24628500	     12.33352675	     11.42277461	      1.50598409	    -19.28365102	      0.49817576	     -1.00550711
      2.57000000	      7.23945467	      1.25795148	     -0.42644461	     -0.04577577	      1.02415572	     -0.03769676	     17.79426903	     -4.57573128	     -1.79895937	    -29.34163794	      7.90847576	     -2.21014313	     16.23098362	    -14.01559373	      3.57304568	    -11.11259399	     -3.31330723	     12.64756846	     11.38449992	      1.54914028	    -19.30010492	      0.37097471	     -1.07627696
      2.57500000	      7.26842588	      1.37663112	     -0.40567819	     -0.04059745	      1.02331821	     -0.03740948	     17.68613680	     -4.68722137	     -1.86357806	    -27.82313903	      7.79947217	     -1.98608838	     16.21960479	    -14.34337210	      3.68049011	    -11.01169071	     -3.36677358	     12.95274552	     11.34303611	      1.60739566	    -19.31823769	      0.25016420	     -1.15564904
      2.58000000	      7.25942269	      1.52087007	     -0.39729181	     -0.03544009	      1.02238474	     -0.03712018	     17.61799776	     -4.82394532	     -1.90020808	    -26.30984174	      7.67850412	     -1.75672920	     16.20561135	    -14.62141992	      3.81749187	    -10.90228367	     -3.43627713	     13.26222119	     11.28092633	      1.67680836	    -19.29499184	      0.10057185	     -1.21762282
      2.58500000	      7.27426865	      1.67073552	     -0.38629026	     -0.03024042	      1.02145221	     -0.03684583	     17.50350876	     -4.97151515	     -1.94565529	    -24.78188484	      7.55647933	     -1.52605394	     16.19016210	    -14.94072272	      3.96268912	    -10.78912585	     -3.48074145	     13.55091628	     11.21723407	      1.76135655	    -19.29539579	     -0.05143877	     -1.29774874
      2.59000000	      7.28184381	      1.82602408	     -0.37632849	     -0.02502909	      1.02047601	     -0.03657525	     17.38544094	     -5.12758323	     -1.99426786	    -23.25310712	      7.42140476	     -1.30575696	     16.17096068	    -15.24700171	      4.11271101	    -10.67823297	     -3.53846860	     13.84399004	     11.15414591	      1.85943437	    -19.28714111	     -0.20842432	     -1.36255368
      2.59500000	      7.22362394	      2.01945282	     -0.40074501	     -0.01984147	      1.01935542	     -0.03626126	     17.35921241	     -5.31510830	     -1.99300870	    -21.76113822	      7.25494138	     -1.08900159	     16.14911870	    -15.47329467	      4.31106195	    -10.60231753	     -3.61416799	     14.16045082	     11.08638899	      1.93564647	    -19.20740454	     -0.41545184	     -1.42050282
      2.60000000	      7.24251526	      2.17282604	     -0.35872557	     -0.01454893	      1.01835315	     -0.03604538	     17.18648883	     -5.48496402	     -2.10036705	    -20.21689707	      7.11932582	     -0.89112630	     16.12529553	    -15.80437632	      4.45149914	    -10.43776920	     -3.65720117	     14.42628166	     11.00785003	      2.04947262	    -19.20455207	     -0.55705450	     -1.50363198
      2.60500000	      7.24660890	      2.35534377	     -0.35301726	     -0.00925854	      1.01727918	     -0.03578173	     17.04711940	     -5.67726575	     -2.17700658	    -18.71280145	      6.96305440	     -0.68679973	     16.09836565	    -16.11629846	      4.63161178	    -10.32311680	     -3.70961136	     14.70294725	     10.93972940	      2.17503063	    -19.18587855	     -0.73875090	     -1.57045674
      2.61000000	      7.21516898	      2.53669996	     -0.34193694	     -0.00392205	      1.01613246	     -0.03551706	     16.93969446	     -5.86922035	     -2.26970856	    -17.23123689	      6.79662729	     -0.50038164	     16.06734160	    -16.39162819	      4.80792927	    -10.20430903	     -3.76474110	     14.98269779	     10.87593662	      2.30928300	    -19.12314360	     -0.91719360	     -1.64729633
      2.61500000	      7.20673211	      2.71804608	     -0.32835090	      0.00147010	      1.01499162	     -0.03525434	     16.79857228	     -6.06282259	     -2.39235232	    -15.77267076	      6.62546015	     -0.32301227	     16.03241895	    -16.70235719	      4.98439543	    -10.08433139	     -3.80713265	     15.25636515	     10.80903008	      2.45802344	    -19.08027574	     -1.09205372	     -1.73305210
      2.62000000	      7.20360369	      2.90251456	     -0.30953638	      0.00688779	      1.01384509	     -0.03497740	     16.65086033	     -6.25959840	     -2.55065573	    -14.35138187	      6.44284291	     -0.15352562	     15.99629575	    -17.00981306	      5.15798586	     -9.97043968	     -3.87358276	     15.52422496	     10.76274899	      2.60182805	    -19.04208192	     -1.27074080	     -1.79823736
      2.62500000	      7.20840636	      3.07122241	     -0.28488728	      0.01238186	      1.01268805	     -0.03469358	     16.48865343	     -6.43862549	     -2.74718847	    -12.97070349	      6.25908773	      0.01365793	     15.95396744	    -17.34357122	      5.31362486	     -9.85609043	     -3.91492146	     15.79232924	     10.71854515	      2.76876016	    -19.00681963	     -1.42936814	     -1.88809706
      2.63000000	      7.20411764	      3.24842771	     -0.26154254	      0.01790608	      1.01150147	     -0.03437116	     16.34690308	     -6.62019402	     -2.96517972	    -11.65522634	      6.07501100	      0.17196910	     15.91045903	    -17.66086852	      5.47350306	     -9.75323934	     -3.97515921	     16.05380548	     10.69355993	      2.93267609	    -18.95864810	     -1.60121130	     -1.96103687
      2.63500000	      7.23767757	      3.39598096	     -0.22828240	      0.02352631	      1.01036353	     -0.03403708	     16.15516207	     -6.76768977	     -3.23670583	    -10.39005176	      5.89025840	      0.33605581	     15.86232614	    -18.03824890	      5.59816439	     -9.65347516	     -4.01029979	     16.31197046	     10.67814537	      3.12825202	    -18.94350430	     -1.73594005	     -2.05064154
      2.64000000	      7.25492908	      3.54538976	     -0.19447773	      0.02916578	      1.00919270	     -0.03365669	     15.99740952	     -6.90772706	     -3.52440093	     -9.20816025	      5.70460503	      0.48372115	     15.81228502	    -18.38842428	      5.71801498	     -9.56664562	     -4.06868748	     16.56606022	     10.68726735	      3.31875767	    -18.91013789	     -1.87754832	     -2.12565151
      2.64500000	      7.27879826	      3.67814336	     -0.15729732	      0.03487564	      1.00803156	     -0.03324881	     15.83970135	     -7.02262582	     -3.83471747	     -8.10807941	      5.52722104	      0.62818106	     15.76088347	    -18.75484399	      5.81651457	     -9.48412148	     -4.11896966	     16.81542295	     10.70261094	      3.52544895	    -18.87847496	     -2.00118950	     -2.20498050
